<svg width="50" height="50" viewBox="0 0 50 50" fill="none" xmlns="http://www.w3.org/2000/svg">
<rect width="49.3333" height="49.3333" fill="white" fill-opacity="0.21"/>
<path d="M30.9569 18.388C30.6234 18.0457 30.1299 17.9182 29.6697 18.0524L18.9387 21.173C18.4531 21.3079 18.109 21.6951 18.0163 22.187C17.9216 22.6877 18.2524 23.3232 18.6846 23.5889L22.0399 25.6512C22.3841 25.8626 22.8283 25.8096 23.113 25.5224L26.9553 21.6562C27.1487 21.4549 27.4688 21.4549 27.6622 21.6562C27.8556 21.8508 27.8556 22.1662 27.6622 22.3676L23.8133 26.2344C23.5279 26.5209 23.4745 26.9672 23.6846 27.3135L25.7348 30.7025C25.9749 31.1052 26.3884 31.3333 26.8419 31.3333C26.8953 31.3333 26.9553 31.3333 27.0086 31.3266C27.5288 31.2595 27.9423 30.9038 28.0957 30.4005L31.277 19.6832C31.4171 19.2269 31.2904 18.7302 30.9569 18.388Z" fill="white"/>
</svg>
