<?xml version="1.0" encoding="UTF-8"?> <svg xmlns="http://www.w3.org/2000/svg" width="176" height="75" viewBox="0 0 176 75" fill="none"> <path d="M77.8599 18.3428H106.672V30.3913H89.9084V42.44H106.672V54.4885H77.8599V18.3428Z" fill="black"></path> <path d="M112.434 18.3428H141.246V28.8198H124.483V30.9152H141.246V55.0124H112.434V44.0115H129.197V41.9161H112.434V18.3428Z" fill="black"></path> <path d="M147.008 18.3428H175.82V28.8198H159.057V30.9152H175.82V55.0124H147.008V44.0115H163.772V41.9161H147.008V18.3428Z" fill="black"></path> <path d="M59.2703 66.2736L32.9849 73.5608L6.77188 66.2839L0.93042 0.765137H65.118L59.2703 66.2736Z" fill="#264DE4"></path> <path d="M33.0242 67.9909L54.2641 62.1023L59.2613 6.12231H33.0242V67.9909Z" fill="#2965F1"></path> <path d="M33.0243 30.4221H14.3219L15.0421 38.4576H33.0243V30.4221Z" fill="#EBEBEB"></path> <path d="M32.9965 14.158H12.8748L13.6052 22.1937H33.0243V14.158H32.9965Z" fill="#EBEBEB"></path> <path d="M32.989 51.3009L24.0397 48.8844L23.4676 42.4756H19.1189H15.4011L16.5269 55.0927L32.9873 59.6622L33.0242 59.6519V51.2915L32.989 51.3009Z" fill="#EBEBEB"></path> <path d="M44.3195 22.1937L43.5883 30.4222H32.9965V38.4578H42.8914L41.9587 48.8793L32.9965 51.2983V59.6584L49.4699 55.0927L49.5908 53.7351L51.4791 32.58L51.6751 30.4222L53.1258 14.158H32.9965V22.1937H44.3195Z" fill="white"></path> </svg> 