<?xml version="1.0" encoding="UTF-8"?> <svg xmlns="http://www.w3.org/2000/svg" width="180" height="61" viewBox="0 0 180 61" fill="none"> <path d="M0.5 15.8003H10V25.1836H18.6883V15.8003H28.1883V44.2169H18.6883V34.7169H10V44.2169H0.5V15.8003ZM40.6783 25.2253H32.3V15.802H58.5267V25.2253H50.16V44.2203H40.66V25.2253H40.6783ZM62.69 15.8003H72.595L78.6883 25.8003L84.775 15.8003H94.6667V44.2169H85.2067V30.1303L78.6733 40.2353H78.51L72 30.1319V44.2186H62.7067L62.69 15.8003ZM99.4067 15.8003H108.907V34.8419H122.265V44.2353H99.4083L99.4067 15.8003Z" fill="black"></path> <path d="M126.783 0.108643H179.512L174.708 53.9221L153.117 59.9087L131.583 53.9304L126.783 0.108643Z" fill="#E44D26"></path> <path d="M170.6 50.497L174.705 4.51025H153.167V55.3337L170.6 50.497Z" fill="#F16529"></path> <path d="M144.417 24.4718L143.813 17.7118H153.167V11.1118H136.617L138.397 31.0735H153.167V24.4735L144.417 24.4718ZM138.673 34.3751L139.598 44.7418L153.12 48.4951L153.15 48.4868V41.6201L153.122 41.6285L145.788 39.6285L145.318 34.3618H141.747L138.673 34.3751Z" fill="#EBEBEB"></path> <path d="M168.31 26.2419L168.472 24.4686H153.128V31.0686H161.257L160.49 39.6302L153.128 41.6169V48.4836L166.662 44.7336L166.762 43.6169L168.31 26.2419ZM153.143 17.7119H169.088L169.68 11.0952H153.143V17.6786V17.7119Z" fill="white"></path> </svg> 