<svg width="23" height="23" viewBox="0 0 23 23" fill="none" xmlns="http://www.w3.org/2000/svg">
<g clip-path="url(#clip0_2027_2222)">
<path d="M11.13 0C4.98067 0 0 4.98067 0 11.13C0 16.055 3.18596 20.2149 7.61014 21.6896C8.16664 21.787 8.37533 21.4531 8.37533 21.1609C8.37533 20.8966 8.36141 20.0201 8.36141 19.088C5.565 19.6027 4.84155 18.4062 4.61895 17.7802C4.49374 17.4602 3.95115 16.4724 3.47813 16.2081C3.08858 15.9994 2.53208 15.4846 3.46421 15.4707C4.3407 15.4568 4.96676 16.2776 5.17545 16.6115C6.17715 18.2949 7.77709 17.8219 8.41706 17.5298C8.51445 16.8063 8.80661 16.3194 9.1266 16.0411C6.65018 15.7629 4.06245 14.8029 4.06245 10.5457C4.06245 9.33529 4.49374 8.33359 5.20328 7.55449C5.09198 7.27624 4.70242 6.13541 5.31457 4.60504C5.31457 4.60504 6.24671 4.31288 8.37533 5.74586C9.26573 5.49544 10.2118 5.37022 11.1578 5.37022C12.1039 5.37022 13.0499 5.49544 13.9403 5.74586C16.0689 4.29896 17.0011 4.60504 17.0011 4.60504C17.6132 6.13541 17.2237 7.27624 17.1124 7.55449C17.8219 8.33359 18.2532 9.32137 18.2532 10.5457C18.2532 14.8168 15.6516 15.7629 13.1751 16.0411C13.5786 16.3889 13.9264 17.0567 13.9264 18.1002C13.9264 19.5888 13.9125 20.7853 13.9125 21.1609C13.9125 21.4531 14.1212 21.8009 14.6777 21.6896C16.8873 20.9439 18.8074 19.5239 20.1676 17.6296C21.5278 15.7353 22.2596 13.4621 22.26 11.13C22.26 4.98067 17.2793 0 11.13 0Z" fill="white"/>
</g>
<defs>
<clipPath id="clip0_2027_2222">
<rect width="22.26" height="22.26" fill="white"/>
</clipPath>
</defs>
</svg>
