<svg width="141" height="38" viewBox="0 0 141 38" fill="none" xmlns="http://www.w3.org/2000/svg">
<path d="M12.5394 5.53809H28.5614L16.782 23.2095H0.76001L12.5394 5.53809Z" fill="#19B5F1"/>
<path d="M13.241 24.8474L8.67859 31.692H25.4606L37.24 14.0205H24.8538L17.6369 24.8474H13.241Z" fill="#CA6AEB"/>
<path d="M42.23 10.9H45.45L49.452 23.274H49.498L53.5 10.9H56.72L50.993 27H47.957L42.23 10.9ZM69.264 21.664V27H66.136V22.377L64.756 20.836H59.742V27H56.614V10.9H66.711L69.172 13.384V18.26L67.608 19.847L69.264 21.664ZM59.742 18.26H65.285L66.09 17.455V14.327L65.285 13.522H59.742V18.26ZM69.7195 19.778H77.8155V22.4H69.7195V19.778ZM78.3822 10.9H88.4792L90.9402 13.384V19.019L88.4562 21.526H81.5102V27H78.3822V10.9ZM87.0532 18.904L87.8582 18.099V14.327L87.0532 13.522H81.5102V18.904H87.0532ZM91.4114 10.9H94.5394V24.355H102.589V27H91.4114V10.9ZM106.972 10.9H109.824L115.712 27H112.538L111.227 23.435H105.569L104.258 27H101.084L106.972 10.9ZM110.537 20.859L108.398 14.741H108.352L106.282 20.859H110.537ZM114.926 24.355V13.545L117.571 10.9H125.437L128.036 13.499V15.96H124.908V14.649L123.827 13.568H119.227L118.054 14.741V23.159L119.227 24.332H123.827L124.908 23.251V21.94H128.036V24.401L125.437 27H117.571L114.926 24.355ZM128.387 10.9H140.025V13.545H131.515V17.616H139.358V20.215H131.515V24.355H140.025V27H128.387V10.9Z" fill="url(#paint0_linear_21_12730)"/>
<defs>
<linearGradient id="paint0_linear_21_12730" x1="49.5" y1="33" x2="144" y2="33" gradientUnits="userSpaceOnUse">
<stop stop-color="white"/>
<stop offset="0.997679" stop-color="#212121" stop-opacity="0.593818"/>
</linearGradient>
</defs>
</svg>
