<svg width="40" height="32" viewBox="0 0 40 32" fill="none" xmlns="http://www.w3.org/2000/svg">
<g clip-path="url(#clip0_0_579)">
<path d="M29.0475 7.4984C31.461 7.89176 33.6969 9.03561 35.4418 10.7889C37.1868 12.5416 38.3254 14.7878 38.717 17.2122H29.0475V7.4984ZM27.8955 6.20923V18.3696H39.9999C39.8217 15.2029 38.4889 12.2128 36.2564 9.97043C34.0243 7.72765 31.0479 6.38867 27.8959 6.20958L27.8955 6.20923Z" fill="#0D663A" stroke="#0D663A" stroke-width="0.3"/>
<path d="M11.7024 4.74452V25.388H8.29339V4.74452H11.7024ZM12.8545 3.58716H7.14136V26.5453H12.8545V3.58716Z" fill="#0D663A" stroke="#0D663A" stroke-width="0.3"/>
<path d="M4.56107 9.04982V25.388H1.15204V9.04982H4.56107ZM5.71311 7.89246H0V26.5454H5.71311V7.89246Z" fill="#0D663A" stroke="#0D663A" stroke-width="0.3"/>
<path d="M25.3156 7.49549L25.3156 19.0845C25.3146 19.5858 25.5087 20.0574 25.8621 20.4124C26.2145 20.7664 26.6827 20.9614 27.1817 20.9614H38.7191C38.5471 22.0394 38.2263 23.0851 37.7606 24.0827C37.1209 25.453 36.237 26.6703 35.1335 27.7007C32.9633 29.7268 30.1364 30.8426 27.1735 30.8426C27.1024 30.8426 27.0302 30.842 26.9589 30.8406C25.4526 30.8129 23.9859 30.4987 22.5993 29.9067C21.2128 29.3148 19.9696 28.472 18.9044 27.402C17.8391 26.3317 17.0003 25.0827 16.411 23.6898C15.8218 22.2969 15.509 20.8233 15.4814 19.3101C15.4538 17.7968 15.7126 16.3127 16.2506 14.899C16.7886 13.4853 17.5814 12.2064 18.6068 11.0978C19.6327 9.98907 20.8444 9.10105 22.2083 8.45843C23.2014 7.99054 24.2424 7.66823 25.3156 7.49549ZM26.4676 6.20911C23.1472 6.39244 20.0271 7.86277 17.763 10.3099C15.4993 12.7571 14.2686 15.991 14.3296 19.3313C14.3905 22.6716 15.7385 25.8579 18.0897 28.2203C20.4413 30.5824 23.6128 31.9366 26.9378 31.9978C27.0163 31.9993 27.0951 32 27.1735 32C30.4147 32 33.5394 30.7689 35.9177 28.5485C38.3535 26.2741 39.817 23.1395 39.9996 19.804H27.1817C27.1812 19.804 27.1808 19.804 27.1803 19.804C26.9912 19.804 26.8103 19.7283 26.6767 19.594C26.5427 19.4594 26.4673 19.2771 26.4676 19.0867V6.20911ZM39.9996 19.8037C39.9996 19.8039 39.9996 19.8038 39.9996 19.804H40L39.9996 19.8037Z" fill="#0D663A"/>
<path d="M39.9996 19.804C39.817 23.1395 38.3535 26.2741 35.9177 28.5485C33.5394 30.7689 30.4147 32 27.1735 32C27.0951 32 27.0163 31.9993 26.9378 31.9978C23.6128 31.9366 20.4413 30.5824 18.0897 28.2203C15.7385 25.8579 14.3905 22.6716 14.3296 19.3313C14.2686 15.991 15.4993 12.7571 17.763 10.3099C20.0271 7.86277 23.1472 6.39244 26.4676 6.20911V19.0867C26.4673 19.2771 26.5427 19.4594 26.6767 19.594C26.8103 19.7283 26.9912 19.804 27.1803 19.804C27.1808 19.804 27.1812 19.804 27.1817 19.804H39.9996ZM39.9996 19.804C39.9996 19.8038 39.9996 19.8039 39.9996 19.8037L40 19.804H39.9996ZM25.3156 7.49549L25.3156 19.0845C25.3146 19.5858 25.5087 20.0574 25.8621 20.4124C26.2145 20.7664 26.6827 20.9614 27.1817 20.9614H38.7191C38.5471 22.0394 38.2263 23.0851 37.7606 24.0827C37.1209 25.453 36.237 26.6703 35.1335 27.7007C32.9633 29.7268 30.1364 30.8426 27.1735 30.8426C27.1024 30.8426 27.0302 30.842 26.9589 30.8406C25.4526 30.8129 23.9859 30.4987 22.5993 29.9067C21.2128 29.3148 19.9696 28.472 18.9044 27.402C17.8391 26.3317 17.0003 25.0827 16.411 23.6898C15.8218 22.2969 15.509 20.8233 15.4814 19.3101C15.4538 17.7968 15.7126 16.3127 16.2506 14.899C16.7886 13.4853 17.5814 12.2064 18.6068 11.0978C19.6327 9.98907 20.8444 9.10105 22.2083 8.45843C23.2014 7.99054 24.2424 7.66823 25.3156 7.49549Z" stroke="#0D663A" stroke-width="0.3"/>
<path d="M18.8438 1.15736V5.49263C17.6214 6.24794 16.509 7.16398 15.5298 8.22237C15.498 8.25676 15.4663 8.29133 15.4348 8.326V1.15736H18.8438ZM19.9958 0H14.2827V11.9056C14.8562 10.8674 15.5561 9.89403 16.3737 9.01022C17.4344 7.86375 18.6589 6.90429 19.9958 6.15562V0Z" fill="#0D663A" stroke="#0D663A" stroke-width="0.3"/>
</g>
<defs>
<clipPath id="clip0_0_579">
<rect width="40" height="32" fill="white"/>
</clipPath>
</defs>
</svg>
