<svg width="35" height="27" viewBox="0 0 35 27" fill="none" xmlns="http://www.w3.org/2000/svg">
<g clip-path="url(#clip0_0_577)">
<path d="M9.70675 0.000947837C9.29661 0.0394385 8.98392 0.384009 8.98576 0.795386V6.90123H0.795286C0.355849 6.90154 0 7.25689 0 7.69567V23.1595C0 23.598 0.355865 23.9537 0.795286 23.9537H3.16914L4.77266 26.6222C4.91729 26.8568 5.17386 27 5.44985 27C5.72616 27 5.98242 26.8568 6.12735 26.6222L7.78029 23.9537H25.2183C25.6574 23.9537 26.0136 23.598 26.0136 23.1595V17.0408H27.207L28.8599 19.7216C29.007 19.9553 29.2645 20.0957 29.5408 20.0932C29.8171 20.0908 30.0722 19.9454 30.2146 19.7093L31.8305 17.0407H34.2044C34.6438 17.0407 35 16.6854 35 16.2466V0.795362C35 0.356568 34.6438 0.000923778 34.2044 0.000923778H9.78139C9.75671 -0.000307926 9.73174 -0.000307926 9.70707 0.000923778L9.70675 0.000947837ZM10.5767 1.58951H33.409V15.4524H31.383C31.1076 15.4561 30.8538 15.6017 30.7119 15.8373L29.5312 17.7858L28.3378 15.8373C28.1938 15.598 27.9341 15.4517 27.6544 15.4524H10.5772L10.5767 1.58951ZM15.8092 7.48473C15.2285 7.48473 14.7527 7.95585 14.7527 8.53969C14.7527 9.12321 15.2285 9.60696 15.8092 9.60696C16.3899 9.60696 16.8657 9.12321 16.8657 8.53969C16.8657 7.95587 16.3899 7.48473 15.8092 7.48473ZM19.8486 7.48473C19.268 7.48473 18.8048 7.95585 18.8048 8.53969C18.8048 9.12321 19.2679 9.60696 19.8486 9.60696C20.4293 9.60696 20.9052 9.12321 20.9052 8.53969C20.9052 7.95587 20.4293 7.48473 19.8486 7.48473ZM23.8881 7.48473C23.3077 7.48473 22.8442 7.95585 22.8442 8.53969C22.8442 9.12321 23.3077 9.60696 23.8881 9.60696C24.4687 9.60696 24.9446 9.12321 24.9446 8.53969C24.9446 7.95587 24.4688 7.48473 23.8881 7.48473ZM27.9401 7.48473C27.3594 7.48473 26.8836 7.95585 26.8836 8.53969C26.8836 9.12321 27.3594 9.60696 27.9401 9.60696C28.5205 9.60696 28.984 9.12321 28.984 8.53969C28.984 7.95587 28.5205 7.48473 27.9401 7.48473ZM1.59087 8.4898H8.98606V16.2467C8.98606 16.6855 9.34224 17.0408 9.78135 17.0408H24.4224V22.3652H7.34512C7.06512 22.3646 6.80578 22.5105 6.66145 22.7501L5.46837 24.6737L4.29991 22.7501C4.15559 22.5105 3.89594 22.3646 3.61624 22.3652H1.59052L1.59087 8.4898Z" fill="#0D663A"/>
</g>
<defs>
<clipPath id="clip0_0_577">
<rect width="35" height="27" fill="white"/>
</clipPath>
</defs>
</svg>
