<svg width="31" height="31" viewBox="0 0 31 31" fill="none" xmlns="http://www.w3.org/2000/svg">
<g clip-path="url(#clip0_0_585)">
<path d="M27.3555 20H19.6445C19.2899 20 19 19.7103 19 19.356V16.644C19 16.2897 19.2899 16 19.6445 16H27.3555C27.7101 16 28 16.2897 28 16.644V19.356C28.0002 19.7103 27.7103 20 27.3555 20ZM19.9254 19.0753H27.0753V16.9212H19.9254L19.9254 19.0753Z" fill="#0D663A"/>
<path d="M20.2693 22.2659H22.4737V23.3131H20.2693V22.2659Z" fill="#0D663A"/>
<path d="M25.3418 22.2659H27.5462V23.3131H25.3418V22.2659Z" fill="#0D663A"/>
<path d="M25.3418 26H27.5462V27.0472H25.3418V26Z" fill="#0D663A"/>
<path d="M20.2693 26H22.4737V27.0472H20.2693V26Z" fill="#0D663A"/>
<path d="M29.7661 31H17.0077C16.3283 31 15.7737 30.445 15.7737 29.7574V13.6332C15.7737 12.949 16.3249 12.3906 17.0077 12.3906H29.7661C30.4455 12.3906 31 12.9457 31 13.6332V29.7574C31 30.4449 30.4452 31 29.7661 31ZM17.0077 13.4407C16.9003 13.4407 16.8137 13.5279 16.8137 13.636V29.7603C16.8137 29.8683 16.9003 29.9556 17.0077 29.9556H29.7661C29.8734 29.9556 29.9601 29.8683 29.9601 29.7603V13.636C29.9601 13.5279 29.8734 13.4407 29.7661 13.4407L17.0077 13.4407Z" fill="#0D663A" stroke="#0D663A" stroke-width="0.5"/>
<path d="M17.0077 31H0V0H19.7522L25.9008 6.19156V12.9171H24.8609V6.62442L19.3224 1.04719H1.03963V29.9524H17.0075L17.0077 31Z" fill="#0D663A" stroke="#0D663A" stroke-width="0.5"/>
<path d="M25.3816 6.93143H19.0181V0.523438H20.0577V5.88452H25.3816V6.93143Z" fill="#0D663A" stroke="#0D663A" stroke-width="0.5"/>
<path d="M4.35706 24.7106H12.2801V25.7578H4.35706V24.7106Z" fill="#0D663A"/>
<path d="M4.35706 14.9764H12.2801V16.0236H4.35706V14.9764Z" fill="#0D663A"/>
<path d="M4.35706 8.71118H19.3718V9.75837H4.35706V8.71118Z" fill="#0D663A"/>
</g>
<defs>
<clipPath id="clip0_0_585">
<rect width="31" height="31" fill="white"/>
</clipPath>
</defs>
</svg>
