<svg width="21" height="21" viewBox="0 0 21 21" fill="none" xmlns="http://www.w3.org/2000/svg">
<path d="M9.71109 3.32823H4.73541C3.08661 3.32823 1.75 4.6648 1.75 6.31354V16.2647C1.75 17.9134 3.08661 19.25 4.73541 19.25H14.6868C16.3356 19.25 17.6722 17.9134 17.6722 16.2647L17.6722 11.2891M6.72568 14.2744L10.3463 13.5449C10.5385 13.5061 10.715 13.4115 10.8536 13.2728L18.9587 5.16352C19.3473 4.77472 19.3471 4.1445 18.9581 3.75602L17.2412 2.04106C16.8524 1.65275 16.2225 1.65301 15.834 2.04165L7.72809 10.1518C7.58975 10.2902 7.49529 10.4663 7.45653 10.6581L6.72568 14.2744Z" stroke="#0D663A" stroke-width="2" stroke-linecap="round" stroke-linejoin="round"/>
</svg>
