<svg width="25" height="25" viewBox="0 0 25 25" fill="none" xmlns="http://www.w3.org/2000/svg">
<path d="M12.0001 6.5V9.5C12.0001 10.0523 12.4478 10.5 13.0001 10.5H16.0001M18.0001 2.5H10.9999C9.89533 2.5 8.9999 3.39542 8.9999 4.49999V6.5M18.0001 2.5H18.558C18.8396 2.5 19.1077 2.61861 19.3017 2.82273C19.5932 3.12948 20.0551 3.60178 20.5001 4C20.8489 4.3121 21.397 4.87221 21.7251 5.21261C21.9026 5.3967 22.0001 5.64249 22.0001 5.89819L22.0001 6.5M18.0001 2.5V5.5C18.0001 6.05229 18.4478 6.5 19.0001 6.5H22.0001M22.0001 6.5L21.9999 16.5C21.9998 17.6046 21.1044 18.5 19.9998 18.5H15.9998M14.5001 8C14.0551 7.60179 13.5932 7.12948 13.3017 6.82273C13.1077 6.61861 12.8396 6.5 12.558 6.5H4.99989C3.89533 6.5 2.9999 7.39542 2.99989 8.49999L2.99982 20.4999C2.99981 21.6045 3.89524 22.5 4.99981 22.5L13.9998 22.5C15.1044 22.5 15.9998 21.6046 15.9999 20.5L16.0001 9.8982C16.0001 9.6425 15.9026 9.3967 15.7251 9.21261C15.3969 8.87221 14.8489 8.3121 14.5001 8Z" stroke="#0D663A" stroke-width="2" stroke-linecap="round" stroke-linejoin="round"/>
</svg>
