<svg width="23" height="23" viewBox="0 0 23 23" fill="none" xmlns="http://www.w3.org/2000/svg">
<path d="M9.19997 16.1H13.8M6.51664 20.7H16.4833C17.5419 20.7 18.4 19.8419 18.4 18.7833V4.21665C18.4 3.15811 17.5419 2.29999 16.4833 2.29999H6.51664C5.4581 2.29999 4.59998 3.15811 4.59998 4.21665V18.7833C4.59998 19.8419 5.4581 20.7 6.51664 20.7ZM13.8 8.04999C13.8 9.32024 12.7702 10.35 11.5 10.35C10.2297 10.35 9.19997 9.32024 9.19997 8.04999C9.19997 6.77973 10.2297 5.74999 11.5 5.74999C12.7702 5.74999 13.8 6.77973 13.8 8.04999Z" stroke="#0D663A" stroke-width="2" stroke-linecap="round" stroke-linejoin="round"/>
</svg>
