<svg width="23" height="15" viewBox="0 0 23 15" fill="none" xmlns="http://www.w3.org/2000/svg">
<path d="M11.5811 14.5H0.921472C0.792884 14.5 0.671229 14.4391 0.591466 14.3356C0.511697 14.2315 0.481817 14.0957 0.510897 13.9663C0.538376 13.8437 1.19279 10.9559 1.717 9.81878C2.03367 9.1322 3.42549 8.38695 4.15114 8.03556C3.81899 7.59906 3.56929 7.0725 3.41559 6.48614C3.34276 6.43712 3.26966 6.35973 3.2051 6.24075C3.01169 5.88632 2.65287 4.56992 3.03329 4.01331C3.08772 3.93399 3.15522 3.87065 3.23071 3.82411C3.24111 3.35483 3.28673 2.8767 3.44013 2.53328C3.96622 1.3554 5.18728 0.5 6.34325 0.5C7.34208 0.5 8.67945 1.13259 9.25464 2.52172C9.38616 2.83843 9.46032 3.24874 9.47633 3.74479C9.56811 3.7861 9.64974 3.85247 9.7135 3.9406C10.0961 4.46991 9.72017 5.81222 9.54836 6.16579C9.4702 6.32607 9.37629 6.43816 9.26771 6.5015C9.11431 7.08122 8.86621 7.60119 8.53831 8.03302C8.9873 8.2415 9.71989 8.60888 10.2473 9.00602C10.5658 9.24589 10.8289 9.56894 10.934 9.8493C10.9396 9.86417 10.9444 9.87959 10.9484 9.89501L11.9896 13.9538C12.023 14.0841 11.9963 14.2234 11.916 14.3306C11.8354 14.4371 11.7118 14.5 11.5811 14.5ZM1.45691 13.6297H11.0327L10.1392 10.1468C10.0979 10.0559 9.96475 9.87193 9.74866 9.70889C9.13346 9.24567 8.14582 8.8028 7.88438 8.68908C6.95146 9.39107 5.7304 9.39024 4.79775 8.68742C3.79681 9.14101 2.6422 9.83471 2.47726 10.1928C2.12031 10.968 1.67163 12.7382 1.45691 13.6297ZM3.88435 5.69611C4.03134 5.73412 4.14099 5.863 4.17621 6.03348C4.31253 6.69802 4.60359 7.29511 4.99603 7.71453C5.78116 8.55287 6.89206 8.55696 7.67848 7.72637C8.07759 7.30473 8.37319 6.70247 8.50978 6.02995C8.53273 5.91676 8.59889 5.81789 8.69253 5.75455C8.73548 5.72536 8.78297 5.70526 8.83232 5.69424C8.93557 5.43399 9.04015 4.91075 9.04121 4.61055C8.93717 4.60725 8.83712 4.56484 8.76136 4.48937C8.67492 4.40373 8.62823 4.28448 8.63197 4.1611C8.65011 3.59818 8.59675 3.14954 8.4791 2.864C8.0728 1.88332 7.09693 1.37048 6.34274 1.37048C5.51356 1.37048 4.5945 2.02731 4.20529 2.89812C4.06549 3.2107 4.06949 3.935 4.07029 4.17295C4.07109 4.29384 4.0228 4.40952 3.93744 4.49213C3.87314 4.55437 3.79231 4.59403 3.70667 4.60615C3.68293 4.86943 3.77977 5.41601 3.88435 5.69611ZM22.0785 14.0027H14.3985C14.1656 14.0027 13.977 13.808 13.977 13.5675C13.977 13.3271 14.1656 13.1324 14.3985 13.1324H22.0785C22.3114 13.1324 22.5 13.3271 22.5 13.5675C22.5 13.8082 22.3114 14.0027 22.0785 14.0027ZM22.0785 8.90558H14.3985C14.1656 8.90558 13.977 8.71088 13.977 8.47045C13.977 8.23002 14.1653 8.03532 14.3985 8.03532H22.0785C22.3114 8.03532 22.5 8.23002 22.5 8.47045C22.5 8.71115 22.3114 8.90558 22.0785 8.90558ZM22.0785 3.80848H14.3985C14.1656 3.80848 13.977 3.61378 13.977 3.37335C13.977 3.13292 14.1656 2.93822 14.3985 2.93822H22.0785C22.3114 2.93822 22.5 3.13292 22.5 3.37335C22.5 3.61405 22.3114 3.80848 22.0785 3.80848Z" fill="#0D663A" stroke="#0D663A"/>
</svg>
